<?xml version="1.0" encoding="UTF-8" standalone="no"?>
<!-- Generator: Adobe Illustrator 18.0.0, SVG Export Plug-In . SVG Version: 6.00 Build 0)  -->

<svg
   xmlns:dc="http://purl.org/dc/elements/1.1/"
   xmlns:cc="http://creativecommons.org/ns#"
   xmlns:rdf="http://www.w3.org/1999/02/22-rdf-syntax-ns#"
   xmlns:svg="http://www.w3.org/2000/svg"
   xmlns="http://www.w3.org/2000/svg"
   xmlns:sodipodi="http://sodipodi.sourceforge.net/DTD/sodipodi-0.dtd"
   xmlns:inkscape="http://www.inkscape.org/namespaces/inkscape"
   version="1.1"
   id="Capa_1"
   x="0px"
   y="0px"
   viewBox="0 0 512 512"
   style="enable-background:new 0 0 512 512;"
   xml:space="preserve"
   inkscape:version="0.91 r13725"
   sodipodi:docname="add.svg"><metadata
     id="metadata3377"><rdf:RDF><cc:Work
         rdf:about=""><dc:format>image/svg+xml</dc:format><dc:type
           rdf:resource="http://purl.org/dc/dcmitype/StillImage" /></cc:Work></rdf:RDF></metadata><defs
     id="defs3375" /><sodipodi:namedview
     pagecolor="#ffffff"
     bordercolor="#666666"
     borderopacity="1"
     objecttolerance="10"
     gridtolerance="10"
     guidetolerance="10"
     inkscape:pageopacity="0"
     inkscape:pageshadow="2"
     inkscape:window-width="1600"
     inkscape:window-height="837"
     id="namedview3373"
     showgrid="false"
     inkscape:zoom="1.3085938"
     inkscape:cx="256"
     inkscape:cy="256"
     inkscape:window-x="-8"
     inkscape:window-y="-8"
     inkscape:window-maximized="1"
     inkscape:current-layer="Capa_1" /><g
     id="g3337"><path
       d="M497.938,430.063l-112-112c-0.313-0.313-0.637-0.607-0.955-0.909C404.636,285.403,416,248.006,416,208   C416,93.313,322.695,0,208,0S0,93.313,0,208s93.305,208,208,208c40.007,0,77.404-11.364,109.154-31.018   c0.302,0.319,0.596,0.643,0.909,0.955l112,112C439.43,507.313,451.719,512,464,512c12.281,0,24.57-4.688,33.938-14.063   C516.688,479.203,516.688,448.797,497.938,430.063z M64,208c0-79.406,64.602-144,144-144s144,64.594,144,144   c0,79.406-64.602,144-144,144S64,287.406,64,208z"
       id="path3339" /><path
       d="M272,176h-32v-32c0-17.672-14.328-32-32-32s-32,14.328-32,32v32h-32c-17.672,0-32,14.328-32,32s14.328,32,32,32h32v32   c0,17.672,14.328,32,32,32s32-14.328,32-32v-32h32c17.672,0,32-14.328,32-32S289.672,176,272,176z"
       id="path3341" /></g><g
     id="g3343" /><g
     id="g3345" /><g
     id="g3347" /><g
     id="g3349" /><g
     id="g3351" /><g
     id="g3353" /><g
     id="g3355" /><g
     id="g3357" /><g
     id="g3359" /><g
     id="g3361" /><g
     id="g3363" /><g
     id="g3365" /><g
     id="g3367" /><g
     id="g3369" /><g
     id="g3371" /><path
     style="fill:#ffffff"
     d="m 460.8,511.43646 c -7.85847,-0.55097 -15.66288,-3.16551 -22.92537,-7.68019 -2.74285,-1.70507 -24.38507,-22.76176 -62.29679,-60.61137 -31.9516,-31.89925 -58.36619,-57.99863 -58.6991,-57.99863 -0.33291,0 -4.2886,2.06266 -8.79042,4.58367 -21.0653,11.79658 -45.05754,19.86732 -70.81071,23.82003 -14.37307,2.20604 -42.78925,2.38991 -56.54925,0.36591 C 134.51301,407.11792 94.888738,387.62608 62.774808,355.89257 19.612481,313.24154 -2.4531859,256.59857 0.8348254,196.8915 3.2170828,153.63204 17.956496,114.54637 45.113347,79.474627 52.408762,70.052956 70.243158,52.205848 79.474627,45.088855 103.70466,26.408731 128.74844,14.067627 157.03881,6.8666833 c 33.26109,-8.4661779 69.50969,-8.4578758 102.4,0.023453 21.35773,5.5074599 44.95227,16.0389069 63.09526,28.1626489 12.67151,8.467521 19.87953,14.386909 31.56045,25.918144 32.11218,31.700719 52.40878,71.721371 59.43488,117.193161 2.40799,15.58415 2.41976,43.55089 0.0249,59.11352 -3.96803,25.78541 -12.03185,49.75271 -23.82433,70.81071 -2.52105,4.50182 -4.58371,8.45751 -4.58371,8.79042 0,0.33291 26.08065,26.7475 57.957,58.6991 31.87635,31.95159 58.70297,59.18406 59.61471,60.51659 5.69492,8.32323 8.59323,17.79005 8.57435,28.00664 -0.0196,10.58747 -2.41698,18.36371 -8.35941,27.11431 -9.00229,13.25648 -25.88711,21.3601 -42.13292,20.22108 z M 222.97937,351.47528 c 53.96277,-5.89964 99.75714,-40.77073 119.36134,-90.89021 6.04704,-15.45966 8.97598,-29.77776 9.69197,-47.3791 C 354.88798,143.01306 305.68513,80.572003 236.4817,66.565575 196.21048,58.41488 154.11947,68.004296 121.16028,92.838767 76.983839,126.12533 55.611261,182.35827 66.565575,236.4817 c 11.273724,55.70158 54.534485,99.8668 109.959795,112.25872 15.28868,3.41823 31.48291,4.37162 46.454,2.73486 z"
     id="path3379"
     inkscape:connector-curvature="0" /><path
     style="fill:#ffffff"
     d="m 199.06866,302.30761 c -8.76333,-2.77875 -15.4642,-8.60252 -19.6315,-17.06186 l -2.5297,-5.13513 -0.23676,-20.0035 -0.23676,-20.0035 -19.24981,-0.31703 c -17.59753,-0.28981 -19.61746,-0.46145 -23.53324,-1.99966 -6.50275,-2.55444 -11.25084,-6.05788 -14.86656,-10.96949 -4.58635,-6.23012 -6.07,-10.96706 -6.05832,-19.34281 0.009,-6.11535 0.27654,-7.44334 2.41826,-11.98203 4.13557,-8.76405 11.44737,-15.23414 20.06309,-17.75351 3.28905,-0.96178 8.0082,-1.21372 22.73432,-1.21372 l 18.58369,0 0,-18.58369 c 0,-20.03322 0.50319,-23.54052 4.31145,-30.05161 2.75472,-4.70982 8.8252,-9.99475 14.62237,-12.73017 4.57538,-2.15892 5.89072,-2.42536 12.01544,-2.43389 8.37575,-0.0117 13.11269,1.47197 19.34281,6.05832 4.91161,3.61572 8.41505,8.36381 10.96949,14.86656 1.53821,3.91578 1.70985,5.93571 1.99966,23.53324 l 0.31703,19.24981 20.0035,0.23676 20.0035,0.23676 5.30471,2.61319 c 10.95256,5.3954 17.2561,14.87585 17.81565,26.79449 0.24575,5.23459 -0.019,7.46871 -1.35265,11.41254 -3.94218,11.65813 -13.20725,19.52179 -25.24549,21.42692 -2.73194,0.43235 -12.10269,0.78869 -20.82388,0.79187 l -15.85672,0.006 -0.006,15.85672 c -0.003,8.72119 -0.35952,18.09194 -0.79187,20.82388 -2.48267,15.68761 -15.47953,26.83094 -31.13551,26.69514 -3.24155,-0.0281 -7.26924,-0.48728 -8.95044,-1.02037 l 3.5e-4,0 z"
     id="path3381"
     inkscape:connector-curvature="0" /></svg>