<?xml version="1.0" encoding="UTF-8" standalone="no"?>
<!-- Generator: Adobe Illustrator 16.0.0, SVG Export Plug-In . SVG Version: 6.00 Build 0)  -->

<svg
   xmlns:dc="http://purl.org/dc/elements/1.1/"
   xmlns:cc="http://creativecommons.org/ns#"
   xmlns:rdf="http://www.w3.org/1999/02/22-rdf-syntax-ns#"
   xmlns:svg="http://www.w3.org/2000/svg"
   xmlns="http://www.w3.org/2000/svg"
   xmlns:sodipodi="http://sodipodi.sourceforge.net/DTD/sodipodi-0.dtd"
   xmlns:inkscape="http://www.inkscape.org/namespaces/inkscape"
   version="1.1"
   id="Capa_1"
   x="0px"
   y="0px"
   width="566.229px"
   height="566.229px"
   viewBox="0 0 566.229 566.229"
   style="enable-background:new 0 0 566.229 566.229;"
   xml:space="preserve"
   inkscape:version="0.91 r13725"
   sodipodi:docname="tool.svg"><metadata
     id="metadata3428"><rdf:RDF><cc:Work
         rdf:about=""><dc:format>image/svg+xml</dc:format><dc:type
           rdf:resource="http://purl.org/dc/dcmitype/StillImage" /></cc:Work></rdf:RDF></metadata><defs
     id="defs3426" /><sodipodi:namedview
     pagecolor="#ffffff"
     bordercolor="#666666"
     borderopacity="1"
     objecttolerance="10"
     gridtolerance="10"
     guidetolerance="10"
     inkscape:pageopacity="0"
     inkscape:pageshadow="2"
     inkscape:window-width="1600"
     inkscape:window-height="837"
     id="namedview3424"
     showgrid="false"
     inkscape:zoom="0.4167925"
     inkscape:cx="283.1145"
     inkscape:cy="283.1145"
     inkscape:window-x="-8"
     inkscape:window-y="-8"
     inkscape:window-maximized="1"
     inkscape:current-layer="Capa_1" /><g
     id="g3384"
     transform="matrix(-1,0,0,1,566.2285,0)"><g
       id="g3386"><path
         d="m 131.581,409.416 25.184,25.184 c 3.443,3.442 8.112,5.376 12.984,5.376 4.872,0 9.538,-1.934 12.983,-5.376 L 434.598,182.734 c 3.442,-3.442 5.376,-8.112 5.376,-12.983 0,-4.871 -1.934,-9.538 -5.376,-12.984 l -25.184,-25.184 c -3.584,-3.583 -8.283,-5.376 -12.983,-5.376 -4.7,0 -9.397,1.793 -12.984,5.376 L 131.581,383.448 c -7.169,7.173 -7.169,18.795 0,25.968 z"
         id="path3388"
         inkscape:connector-curvature="0" /><path
         d="m 81.624,283.107 -50.383,50.368 c -41.653,41.671 -41.653,109.463 0,151.134 l 50.383,50.367 c 41.653,41.671 109.447,41.671 151.118,0 l 50.368,-50.367 c 37.356,-37.356 40.906,-95.586 11.288,-137.29 l -52.922,52.94 c 3.026,11.794 0.505,24.731 -8.73,33.948 l -50.383,50.401 c -13.914,13.913 -36.436,13.913 -50.368,0 L 81.627,434.207 c -13.932,-13.914 -13.932,-36.417 0,-50.364 l 50.368,-50.365 c 9.217,-9.217 22.105,-11.723 33.896,-8.767 l 52.957,-52.941 c -41.71,-29.605 -99.883,-26.003 -137.224,11.337 z"
         id="path3390"
         inkscape:connector-curvature="0" /><path
         d="m 484.607,31.239 c -41.671,-41.653 -109.463,-41.653 -151.134,0 l -50.367,50.386 c -37.341,37.341 -40.94,95.515 -11.341,137.22 L 324.74,165.87 c -2.992,-11.774 -0.486,-24.66 8.73,-33.88 l 50.367,-50.368 c 13.914,-13.914 36.454,-13.929 50.368,0 l 50.401,50.368 c 13.913,13.932 13.88,36.469 0,50.364 l -50.401,50.383 c -9.217,9.235 -22.157,11.738 -33.948,8.733 l -52.94,52.941 c 41.671,29.636 99.934,26.053 137.29,-11.304 l 50.367,-50.364 c 41.671,-41.671 41.671,-109.465 0,-151.118 L 484.607,31.239 Z"
         id="path3392"
         inkscape:connector-curvature="0" /></g></g><g
     id="g3394"
     transform="matrix(-1,0,0,1,566.2285,0)" /><g
     id="g3396"
     transform="matrix(-1,0,0,1,566.2285,0)" /><g
     id="g3398"
     transform="matrix(-1,0,0,1,566.2285,0)" /><g
     id="g3400"
     transform="matrix(-1,0,0,1,566.2285,0)" /><g
     id="g3402"
     transform="matrix(-1,0,0,1,566.2285,0)" /><g
     id="g3404"
     transform="matrix(-1,0,0,1,566.2285,0)" /><g
     id="g3406"
     transform="matrix(-1,0,0,1,566.2285,0)" /><g
     id="g3408"
     transform="matrix(-1,0,0,1,566.2285,0)" /><g
     id="g3410"
     transform="matrix(-1,0,0,1,566.2285,0)" /><g
     id="g3412"
     transform="matrix(-1,0,0,1,566.2285,0)" /><g
     id="g3414"
     transform="matrix(-1,0,0,1,566.2285,0)" /><g
     id="g3416"
     transform="matrix(-1,0,0,1,566.2285,0)" /><g
     id="g3418"
     transform="matrix(-1,0,0,1,566.2285,0)" /><g
     id="g3420"
     transform="matrix(-1,0,0,1,566.2285,0)" /><g
     id="g3422"
     transform="matrix(-1,0,0,1,566.2285,0)" /><path
     style="fill:#ffffff"
     d="m 424.00931,563.42526 c 28.37179,-3.21155 42.94706,-12.57184 84.89533,-54.52013 31.34875,-31.34874 38.68881,-40.07153 45.06928,-53.55946 13.77545,-29.12044 13.77075,-64.63724 -0.0123,-92.9358 -6.2161,-12.76257 -14.68428,-22.74912 -45.07921,-53.16209 -31.75086,-31.7697 -39.97176,-38.66343 -54.22024,-45.46699 -14.61752,-6.97977 -19.79874,-8.14771 -39.96413,-9.0086 -19.0526,-0.81338 -25.89368,-0.0825 -38.50322,4.1137 -8.43371,2.80656 -17.82377,6.84673 -20.86681,8.97816 l -5.5328,3.87532 25.98864,26.06948 c 18.56965,18.6274 27.16865,25.69495 30.12222,24.75752 11.44064,-3.63112 22.10011,3.35716 54.16104,35.50762 34.01255,34.10753 37.966,40.64972 35.17051,58.2003 -1.32376,8.31076 -5.90644,14.02606 -34.19046,42.64066 -35.06422,35.47406 -41.80637,39.56898 -59.80441,36.3228 -12.68288,-2.28749 -73.80465,-62.23119 -77.51885,-76.02472 -1.3585,-5.04507 -1.87962,-11.03297 -1.15806,-13.30644 0.93744,-2.95356 -6.1301,-11.55257 -24.75752,-30.12222 l -26.06947,-25.98864 -3.99437,5.64761 c -8.73535,12.35086 -14.0402,37.04944 -12.96914,60.38219 0.86348,18.81025 2.18579,24.50483 9.01814,38.83717 6.79868,14.26176 13.65444,22.43975 45.45379,54.22024 30.32044,30.30246 40.41563,38.86944 53.0428,45.01312 17.94943,8.73319 39.43943,12.05115 61.71922,9.5292 z"
     id="path3430"
     inkscape:connector-curvature="0" /><path
     style="fill:#ffffff"
     d="m 421.34322,421.34372 c 13.74819,-13.74819 17.72368,-19.25891 17.72368,-24.56815 0,-5.84358 -19.21249,-26.05695 -131.38476,-138.22921 C 195.50988,146.37409 175.29651,127.1616 169.45293,127.1616 c -9.86618,0 -42.29184,32.42566 -42.29184,42.29182 0,5.8436 19.21249,26.05697 131.38476,138.22923 112.17226,112.17227 132.38563,131.38476 138.22923,131.38476 5.30922,0 10.81995,-3.97548 24.56814,-17.72369 z"
     id="path3432"
     inkscape:connector-curvature="0" /><path
     style="fill:#ffffff"
     d="m 190.18921,307.35378 c 7.61363,-2.50523 16.65806,-6.39949 20.09874,-8.6539 l 6.25578,-4.09894 -26.04412,-26.12514 c -16.40638,-16.4574 -27.39546,-25.71301 -29.69585,-25.01148 -2.00845,0.61251 -7.88333,0.13963 -13.05529,-1.05053 -13.13042,-3.02188 -72.24646,-61.49211 -75.92937,-75.09988 -5.04983,-18.65834 -2.00539,-24.12644 33.40576,-59.99986 35.0207,-35.477867 41.75406,-39.570458 59.76037,-36.322806 12.68287,2.287506 73.80464,62.231196 77.51885,76.024736 1.3585,5.04507 1.87962,11.03296 1.15805,13.30643 -0.93743,2.95357 6.13012,11.55257 24.75752,30.12222 l 26.06948,25.98864 3.87532,-5.5328 c 2.13143,-3.04304 6.1716,-12.4331 8.97816,-20.86681 4.19618,-12.60954 4.92708,-19.45062 4.1137,-38.50322 -0.86089,-20.16539 -2.02883,-25.34661 -9.0086,-39.96413 C 295.64415,97.317834 288.75042,89.096938 256.98072,57.346071 226.56775,26.951145 216.5812,18.482968 203.81863,12.266861 175.45283,-1.5489204 138.84452,-1.5230279 110.36617,12.332961 97.739,18.47664 87.6438,27.043608 57.32337,57.346073 25.96054,88.690291 18.6374,97.389349 12.25408,110.88333 c -13.74139,29.04842 -13.76718,63.43904 -0.0693,92.39314 6.46411,13.66367 13.6652,22.23134 45.13863,53.70474 31.72807,31.72809 40.01263,38.67423 54.24243,45.4793 15.03467,7.18995 19.3096,8.106 40.78769,8.73998 18.55815,0.54783 27.12833,-0.32349 37.83572,-3.84671 z"
     id="path3434"
     inkscape:connector-curvature="0" /></svg>